  0
SECTION
  2
HEADER
  9
$ACADVER
  1
AC1009
  9
$EXTMIN
 10
0.0
 20
0.0
 30
0.0
  9
$EXTMAX
 10
1000.0
 20
1000.0
 30
0.0
  9
$FILLMODE
 70
 0
  9
$SPLFRAME
 70
 1
  0
ENDSEC
  0
SECTION
  2
TABLES
  0
TABLE
  2
LAYER
 70
1
  0
LAYER
  2
0
 70
     0
 62
     7
  6
CONTINUOUS
  0
ENDTAB
  0
ENDSEC
  0
SECTION
  2
ENTITIES
  0
LINE
  8
0
 62
     0
 10
286.002
 20
121.149
 30
0.0
 11
286.158
 21
121.131
 31
0.0
  0
LINE
  8
0
 62
     0
 10
286.158
 20
121.131
 30
0.0
 11
286.312
 21
121.099
 31
0.0
  0
LINE
  8
0
 62
     0
 10
286.312
 20
121.099
 30
0.0
 11
286.464
 21
121.058
 31
0.0
  0
LINE
  8
0
 62
     0
 10
286.464
 20
121.058
 30
0.0
 11
286.611
 21
121.003
 31
0.0
  0
LINE
  8
0
 62
     0
 10
286.611
 20
121.003
 30
0.0
 11
286.753
 21
120.938
 31
0.0
  0
LINE
  8
0
 62
     0
 10
286.753
 20
120.938
 30
0.0
 11
286.889
 21
120.861
 31
0.0
  0
LINE
  8
0
 62
     0
 10
286.889
 20
120.861
 30
0.0
 11
287.021
 21
120.774
 31
0.0
  0
LINE
  8
0
 62
     0
 10
287.021
 20
120.774
 30
0.0
 11
287.143
 21
120.676
 31
0.0
  0
LINE
  8
0
 62
     0
 10
287.143
 20
120.676
 30
0.0
 11
287.26
 21
120.57
 31
0.0
  0
LINE
  8
0
 62
     0
 10
287.26
 20
120.57
 30
0.0
 11
287.365
 21
120.454
 31
0.0
  0
LINE
  8
0
 62
     0
 10
287.365
 20
120.454
 30
0.0
 11
287.464
 21
120.332
 31
0.0
  0
LINE
  8
0
 62
     0
 10
287.464
 20
120.332
 30
0.0
 11
287.551
 21
120.2
 31
0.0
  0
LINE
  8
0
 62
     0
 10
287.551
 20
120.2
 30
0.0
 11
287.628
 21
120.063
 31
0.0
  0
LINE
  8
0
 62
     0
 10
287.628
 20
120.063
 30
0.0
 11
287.693
 21
119.921
 31
0.0
  0
LINE
  8
0
 62
     0
 10
287.693
 20
119.921
 30
0.0
 11
287.748
 21
119.774
 31
0.0
  0
LINE
  8
0
 62
     0
 10
287.748
 20
119.774
 30
0.0
 11
287.789
 21
119.622
 31
0.0
  0
LINE
  8
0
 62
     0
 10
287.789
 20
119.622
 30
0.0
 11
287.821
 21
119.467
 31
0.0
  0
LINE
  8
0
 62
     0
 10
287.821
 20
119.467
 30
0.0
 11
287.839
 21
119.312
 31
0.0
  0
LINE
  8
0
 62
     0
 10
287.839
 20
119.312
 30
0.0
 11
287.846
 21
119.156
 31
0.0
  0
LINE
  8
0
 62
     0
 10
287.846
 20
119.156
 30
0.0
 11
287.846
 21
2.09186
 31
0.0
  0
LINE
  8
0
 62
     0
 10
287.846
 20
2.09186
 30
0.0
 11
287.839
 21
1.93477
 31
0.0
  0
LINE
  8
0
 62
     0
 10
287.839
 20
1.93477
 30
0.0
 11
287.821
 21
1.77905
 31
0.0
  0
LINE
  8
0
 62
     0
 10
287.821
 20
1.77905
 30
0.0
 11
287.789
 21
1.62471
 31
0.0
  0
LINE
  8
0
 62
     0
 10
287.789
 20
1.62471
 30
0.0
 11
287.748
 21
1.47312
 31
0.0
  0
LINE
  8
0
 62
     0
 10
287.748
 20
1.47312
 30
0.0
 11
287.693
 21
1.32705
 31
0.0
  0
LINE
  8
0
 62
     0
 10
287.693
 20
1.32705
 30
0.0
 11
287.628
 21
1.18374
 31
0.0
  0
LINE
  8
0
 62
     0
 10
287.628
 20
1.18374
 30
0.0
 11
287.551
 21
1.04869
 31
0.0
  0
LINE
  8
0
 62
     0
 10
287.551
 20
1.04869
 30
0.0
 11
287.464
 21
0.916397
 31
0.0
  0
LINE
  8
0
 62
     0
 10
287.464
 20
0.916397
 30
0.0
 11
287.365
 21
0.792371
 31
0.0
  0
LINE
  8
0
 62
     0
 10
287.365
 20
0.792371
 30
0.0
 11
287.26
 21
0.677997
 31
0.0
  0
LINE
  8
0
 62
     0
 10
287.26
 20
0.677997
 30
0.0
 11
287.143
 21
0.570509
 31
0.0
  0
LINE
  8
0
 62
     0
 10
287.143
 20
0.570509
 30
0.0
 11
287.021
 21
0.475424
 31
0.0
  0
LINE
  8
0
 62
     0
 10
287.021
 20
0.475424
 30
0.0
 11
286.889
 21
0.38723
 31
0.0
  0
LINE
  8
0
 62
     0
 10
286.889
 20
0.38723
 30
0.0
 11
286.753
 21
0.310059
 31
0.0
  0
LINE
  8
0
 62
     0
 10
286.753
 20
0.310059
 30
0.0
 11
286.611
 21
0.243913
 31
0.0
  0
LINE
  8
0
 62
     0
 10
286.611
 20
0.243913
 30
0.0
 11
286.464
 21
0.190169
 31
0.0
  0
LINE
  8
0
 62
     0
 10
286.464
 20
0.190169
 30
0.0
 11
286.312
 21
0.146072
 31
0.0
  0
LINE
  8
0
 62
     0
 10
286.312
 20
0.146072
 30
0.0
 11
286.158
 21
0.117133
 31
0.0
  0
LINE
  8
0
 62
     0
 10
286.158
 20
0.117133
 30
0.0
 11
286.002
 21
0.0978408
 31
0.0
  0
LINE
  8
0
 62
     0
 10
286.002
 20
0.0978408
 30
0.0
 11
285.845
 21
0.0923286
 31
0.0
  0
LINE
  8
0
 62
     0
 10
285.845
 20
0.0923286
 30
0.0
 11
2.09462
 21
0.0923286
 31
0.0
  0
LINE
  8
0
 62
     0
 10
2.09462
 20
0.0923286
 30
0.0
 11
1.93752
 21
0.0978408
 31
0.0
  0
LINE
  8
0
 62
     0
 10
1.93752
 20
0.0978408
 30
0.0
 11
1.7818
 21
0.117133
 31
0.0
  0
LINE
  8
0
 62
     0
 10
1.7818
 20
0.117133
 30
0.0
 11
1.62746
 21
0.146072
 31
0.0
  0
LINE
  8
0
 62
     0
 10
1.62746
 20
0.146072
 30
0.0
 11
1.47588
 21
0.190169
 31
0.0
  0
LINE
  8
0
 62
     0
 10
1.47588
 20
0.190169
 30
0.0
 11
1.32843
 21
0.243913
 31
0.0
  0
LINE
  8
0
 62
     0
 10
1.32843
 20
0.243913
 30
0.0
 11
1.18649
 21
0.310059
 31
0.0
  0
LINE
  8
0
 62
     0
 10
1.18649
 20
0.310059
 30
0.0
 11
1.05006
 21
0.38723
 31
0.0
  0
LINE
  8
0
 62
     0
 10
1.05006
 20
0.38723
 30
0.0
 11
0.919152
 21
0.475424
 31
0.0
  0
LINE
  8
0
 62
     0
 10
0.919152
 20
0.475424
 30
0.0
 11
0.795129
 21
0.570509
 31
0.0
  0
LINE
  8
0
 62
     0
 10
0.795129
 20
0.570509
 30
0.0
 11
0.679372
 21
0.677997
 31
0.0
  0
LINE
  8
0
 62
     0
 10
0.679372
 20
0.677997
 30
0.0
 11
0.573264
 21
0.792371
 31
0.0
  0
LINE
  8
0
 62
     0
 10
0.573264
 20
0.792371
 30
0.0
 11
0.475424
 21
0.916397
 31
0.0
  0
LINE
  8
0
 62
     0
 10
0.475424
 20
0.916397
 30
0.0
 11
0.388606
 21
1.04869
 31
0.0
  0
LINE
  8
0
 62
     0
 10
0.388606
 20
1.04869
 30
0.0
 11
0.311437
 21
1.18374
 31
0.0
  0
LINE
  8
0
 62
     0
 10
0.311437
 20
1.18374
 30
0.0
 11
0.246669
 21
1.32705
 31
0.0
  0
LINE
  8
0
 62
     0
 10
0.246669
 20
1.32705
 30
0.0
 11
0.191547
 21
1.47312
 31
0.0
  0
LINE
  8
0
 62
     0
 10
0.191547
 20
1.47312
 30
0.0
 11
0.150206
 21
1.62471
 31
0.0
  0
LINE
  8
0
 62
     0
 10
0.150206
 20
1.62471
 30
0.0
 11
0.118511
 21
1.77905
 31
0.0
  0
LINE
  8
0
 62
     0
 10
0.118511
 20
1.77905
 30
0.0
 11
0.100597
 21
1.93477
 31
0.0
  0
LINE
  8
0
 62
     0
 10
0.100597
 20
1.93477
 30
0.0
 11
0.0937066
 21
2.09186
 31
0.0
  0
LINE
  8
0
 62
     0
 10
0.0937066
 20
2.09186
 30
0.0
 11
0.0950846
 21
119.156
 31
0.0
  0
LINE
  8
0
 62
     0
 10
0.0950846
 20
119.156
 30
0.0
 11
0.100597
 21
119.312
 31
0.0
  0
LINE
  8
0
 62
     0
 10
0.100597
 20
119.312
 30
0.0
 11
0.118511
 21
119.467
 31
0.0
  0
LINE
  8
0
 62
     0
 10
0.118511
 20
119.467
 30
0.0
 11
0.150206
 21
119.622
 31
0.0
  0
LINE
  8
0
 62
     0
 10
0.150206
 20
119.622
 30
0.0
 11
0.191547
 21
119.774
 31
0.0
  0
LINE
  8
0
 62
     0
 10
0.191547
 20
119.774
 30
0.0
 11
0.246669
 21
119.921
 31
0.0
  0
LINE
  8
0
 62
     0
 10
0.246669
 20
119.921
 30
0.0
 11
0.311437
 21
120.063
 31
0.0
  0
LINE
  8
0
 62
     0
 10
0.311437
 20
120.063
 30
0.0
 11
0.388606
 21
120.2
 31
0.0
  0
LINE
  8
0
 62
     0
 10
0.388606
 20
120.2
 30
0.0
 11
0.475424
 21
120.332
 31
0.0
  0
LINE
  8
0
 62
     0
 10
0.475424
 20
120.332
 30
0.0
 11
0.573264
 21
120.454
 31
0.0
  0
LINE
  8
0
 62
     0
 10
0.573264
 20
120.454
 30
0.0
 11
0.679372
 21
120.57
 31
0.0
  0
LINE
  8
0
 62
     0
 10
0.679372
 20
120.57
 30
0.0
 11
0.795129
 21
120.676
 31
0.0
  0
LINE
  8
0
 62
     0
 10
0.795129
 20
120.676
 30
0.0
 11
0.919152
 21
120.774
 31
0.0
  0
LINE
  8
0
 62
     0
 10
0.919152
 20
120.774
 30
0.0
 11
1.05006
 21
120.861
 31
0.0
  0
LINE
  8
0
 62
     0
 10
1.05006
 20
120.861
 30
0.0
 11
1.18649
 21
120.938
 31
0.0
  0
LINE
  8
0
 62
     0
 10
1.18649
 20
120.938
 30
0.0
 11
1.32843
 21
121.003
 31
0.0
  0
LINE
  8
0
 62
     0
 10
1.32843
 20
121.003
 30
0.0
 11
1.47588
 21
121.058
 31
0.0
  0
LINE
  8
0
 62
     0
 10
1.47588
 20
121.058
 30
0.0
 11
1.62746
 21
121.099
 31
0.0
  0
LINE
  8
0
 62
     0
 10
1.62746
 20
121.099
 30
0.0
 11
1.7818
 21
121.131
 31
0.0
  0
LINE
  8
0
 62
     0
 10
1.7818
 20
121.131
 30
0.0
 11
1.93752
 21
121.149
 31
0.0
  0
LINE
  8
0
 62
     0
 10
1.93752
 20
121.149
 30
0.0
 11
2.09462
 21
121.156
 31
0.0
  0
LINE
  8
0
 62
     0
 10
2.09462
 20
121.156
 30
0.0
 11
285.845
 21
121.156
 31
0.0
  0
LINE
  8
0
 62
     0
 10
285.845
 20
121.156
 30
0.0
 11
286.002
 21
121.149
 31
0.0
  0
ENDSEC
  0
EOF
